<svg xmlns="http://www.w3.org/2000/svg" viewBox="0 0 64 64"><defs><style>.cls-1{fill:none;}.cls-2{fill:#48b1ff;}</style></defs><g id="Capa_2" data-name="Capa 2"><g id="Capa_1-2" data-name="Capa 1"><rect class="cls-1" width="64" height="64"/><path class="cls-2" d="M30.32,11.38V52.62a1,1,0,0,1-1,1.12h-3.3a1,1,0,0,1-1-1.12v-28a1.06,1.06,0,0,0-1-1.12H4.66a1.16,1.16,0,0,1-.53-2.06l14.42-11c.15-.12,4.82-.18,5-.18h5.79A1,1,0,0,1,30.32,11.38Z"/><path class="cls-2" d="M33.68,11.38V52.62a1,1,0,0,0,1,1.12H38a1,1,0,0,0,1-1.12v-28a1.06,1.06,0,0,1,1-1.12H59.34a1.16,1.16,0,0,0,.53-2.06l-14.42-11a.85.85,0,0,0-.53-.18H34.65A1,1,0,0,0,33.68,11.38Z"/></g></g></svg>