<svg xmlns="http://www.w3.org/2000/svg" viewBox="0 0 344.86 138.8"><defs><style>.cls-1{fill:#1a1a1a;}.cls-2{fill:#fff;}.cls-3{fill:#1c8ef7;}</style></defs><g id="Capa_2" data-name="Capa 2"><g id="Capa_1-2" data-name="Capa 1"><rect class="cls-1" y="37.05" width="123" height="59.67" rx="2.24"/><path class="cls-1" d="M335.45,96.73H181.69a4.25,4.25,0,0,1-4.25-4.26V41.31a4.25,4.25,0,0,1,4.25-4.26H315.61a4.25,4.25,0,0,1,4,2.72l19.83,51.16A4.25,4.25,0,0,1,335.45,96.73Z"/><path class="cls-2" d="M210.47,69.31h-13v8.8h15.26v5.44h-22V50.68h22v5.49H197.47V64h13Z"/><path class="cls-2" d="M234,71.52h-5.4v12h-6.77V50.68H234q5.82,0,9,2.6a9,9,0,0,1,3.16,7.34,10.13,10.13,0,0,1-1.46,5.61,9.91,9.91,0,0,1-4.41,3.57l7.11,13.44v.31h-7.27ZM228.56,66H234A5.61,5.61,0,0,0,238,64.74a4.63,4.63,0,0,0,1.4-3.58,5,5,0,0,0-1.32-3.66A5.47,5.47,0,0,0,234,56.17h-5.44Z"/><path class="cls-2" d="M268.54,71.52h-5.39v12h-6.77V50.68h12.21c3.88,0,6.88.87,9,2.6a9,9,0,0,1,3.16,7.34,10.13,10.13,0,0,1-1.45,5.61,9.88,9.88,0,0,1-4.42,3.57L282,83.24v.31h-7.27ZM263.15,66h5.46a5.61,5.61,0,0,0,3.95-1.29,4.63,4.63,0,0,0,1.4-3.58,5,5,0,0,0-1.32-3.66,5.47,5.47,0,0,0-4.05-1.33h-5.44Z"/><path class="cls-2" d="M309.52,76.78H297.65l-2.26,6.77h-7.2l12.23-32.87h6.28L319,83.55h-7.2Zm-10-5.49h8.21L303.56,59Z"/><path class="cls-2" d="M33.56,74.93a3.49,3.49,0,0,0-1.35-3,17.75,17.75,0,0,0-4.88-2.16,33.76,33.76,0,0,1-5.57-2.25q-5.61-3-5.6-8.15a7.92,7.92,0,0,1,1.5-4.75A9.8,9.8,0,0,1,22,51.41a16.28,16.28,0,0,1,6.31-1.18,14.72,14.72,0,0,1,6.27,1.28,9.94,9.94,0,0,1,4.28,3.6,9.38,9.38,0,0,1,1.52,5.28H33.58a4.44,4.44,0,0,0-1.42-3.51,5.87,5.87,0,0,0-4-1.25,6.22,6.22,0,0,0-3.86,1,3.3,3.3,0,0,0-1.38,2.76,3.18,3.18,0,0,0,1.61,2.69,18.32,18.32,0,0,0,4.75,2q5.79,1.74,8.42,4.31a8.59,8.59,0,0,1,2.64,6.41,7.92,7.92,0,0,1-3.22,6.7C35,83.19,32.08,84,28.44,84a16.73,16.73,0,0,1-6.91-1.39,10.86,10.86,0,0,1-4.75-3.8,9.76,9.76,0,0,1-1.64-5.6h6.8c0,3.63,2.16,5.44,6.5,5.44a6.3,6.3,0,0,0,3.77-1A3.19,3.19,0,0,0,33.56,74.93Z"/><path class="cls-2" d="M74.9,50.68V72.33a11.07,11.07,0,0,1-3.38,8.53Q68.15,84,62.3,84t-9.14-3a10.85,10.85,0,0,1-3.45-8.37V50.68h6.77v21.7q0,3.23,1.54,4.7a5.92,5.92,0,0,0,4.28,1.48q5.72,0,5.8-6V50.68Z"/><path class="cls-2" d="M85.54,83.55V50.68H97.05c4,0,7,.77,9.07,2.3a7.82,7.82,0,0,1,3.09,6.71A7.43,7.43,0,0,1,108,64a7.21,7.21,0,0,1-3.45,2.69,7,7,0,0,1,4,2.55,7.57,7.57,0,0,1,1.46,4.7q0,4.74-3,7.18c-2,1.62-4.89,2.45-8.62,2.48Zm6.77-19.1h5q5.12-.09,5.12-4.08a3.78,3.78,0,0,0-1.3-3.22,6.84,6.84,0,0,0-4.09-1H92.31Zm0,4.79v8.87h5.8A5.58,5.58,0,0,0,101.84,77a3.9,3.9,0,0,0,1.35-3.15q0-4.51-4.68-4.58Z"/><path class="cls-3" d="M146.34,2.16V136.64a2.16,2.16,0,0,1-2.16,2.16h-7.35a2.16,2.16,0,0,1-2.16-2.16V27.6a2.16,2.16,0,0,0-2.16-2.16H89.12a2.16,2.16,0,0,1-1.19-4L120.09.35C120.44.12,130.85,0,131.27,0h12.91A2.16,2.16,0,0,1,146.34,2.16Z"/><path class="cls-3" d="M153.83,2.16V136.64A2.16,2.16,0,0,0,156,138.8h7.35a2.16,2.16,0,0,0,2.16-2.16V27.6a2.16,2.16,0,0,1,2.16-2.16h43.39a2.16,2.16,0,0,0,1.19-4L180.08.36A2.08,2.08,0,0,0,178.9,0H156A2.16,2.16,0,0,0,153.83,2.16Z"/><path class="cls-1" d="M183.88,108.14V127.2h-5.35V108.14ZM182,127.2v-4.63h3.25a8,8,0,0,0,1.83-.21,4.28,4.28,0,0,0,1.61-.73,3.73,3.73,0,0,0,1.16-1.5,7.1,7.1,0,0,0,0-4.92,3.73,3.73,0,0,0-1.16-1.5,4.3,4.3,0,0,0-1.61-.74,8.62,8.62,0,0,0-1.83-.2H182v-4.63h3.47A11.9,11.9,0,0,1,191,109.3a8.33,8.33,0,0,1,3.52,3.28,11,11,0,0,1,0,10.17A8.36,8.36,0,0,1,191,126a11.9,11.9,0,0,1-5.44,1.16Z"/><path class="cls-1" d="M207.26,121.67l.32,1.17-2.15,4.36h-5.86l10.15-20.34,10.17,20.34H214L211.9,123l.29-1.36L209.72,116ZM205,120.23h9.56l.14,3.89h-9.86Z"/><path class="cls-1" d="M221.89,108.14H237.5v4.71h-5.22V127.2h-5.17V112.85h-5.22Z"/><path class="cls-1" d="M246.39,121.67l.32,1.17-2.15,4.36H238.7l10.14-20.34L259,127.2h-5.86L251,123l.29-1.36L248.84,116Zm-2.26-1.44h9.56l.14,3.89H244Z"/><path class="cls-1" d="M268.58,115.68h3a2.83,2.83,0,0,0,1.2-.22,1.59,1.59,0,0,0,.73-.62,1.81,1.81,0,0,0,.25-1,1.48,1.48,0,0,0-.55-1.28,2.78,2.78,0,0,0-1.63-.41h-1.68v11h2.16a5.54,5.54,0,0,0,1.4-.17,1.85,1.85,0,0,0,1-.61,2,2,0,0,0,.37-1.29,1.76,1.76,0,0,0-.21-.9,1.73,1.73,0,0,0-.6-.57,2.48,2.48,0,0,0-.88-.3,6.09,6.09,0,0,0-1.08-.08h-3.49v-2.89h4.13a11.64,11.64,0,0,1,2.69.32,8.08,8.08,0,0,1,2.42,1,5.33,5.33,0,0,1,1.75,1.72,4.72,4.72,0,0,1,.65,2.52,4.89,4.89,0,0,1-.9,3.07,5.11,5.11,0,0,1-2.59,1.7,13.21,13.21,0,0,1-4,.54h-8V108.14h7.49a10.6,10.6,0,0,1,3.56.55,5.42,5.42,0,0,1,2.46,1.62,4.4,4.4,0,0,1,0,5.36,5.48,5.48,0,0,1-2.46,1.66,10.6,10.6,0,0,1-3.56.56h-3.65Z"/><path class="cls-1" d="M292.44,121.67l.32,1.17-2.15,4.36h-5.86l10.15-20.34,10.17,20.34h-5.86L297.08,123l.29-1.36L294.9,116Zm-2.26-1.44h9.56l.14,3.89H290Z"/><path class="cls-1" d="M314.5,122a5.12,5.12,0,0,0,1.52,1.1,4.08,4.08,0,0,0,1.7.38,2.4,2.4,0,0,0,1.41-.39,1.32,1.32,0,0,0,.56-1.16,1.28,1.28,0,0,0-.32-.91,3.35,3.35,0,0,0-1.1-.75c-.53-.26-1.26-.56-2.2-.93a14.47,14.47,0,0,1-1.54-.72,7.68,7.68,0,0,1-1.64-1.16,5.78,5.78,0,0,1-1.31-1.74,5.47,5.47,0,0,1-.52-2.45,4.82,4.82,0,0,1,.94-3,5.79,5.79,0,0,1,2.47-1.89,8.68,8.68,0,0,1,3.44-.66,8.47,8.47,0,0,1,3.41.64,7.39,7.39,0,0,1,2.37,1.61,8.45,8.45,0,0,1,1.44,1.94l-3.89,2.21a4.77,4.77,0,0,0-.92-1.13,4.39,4.39,0,0,0-1.11-.7A3.12,3.12,0,0,0,318,112a2,2,0,0,0-1.23.33,1,1,0,0,0-.45.87,1.3,1.3,0,0,0,.52,1,5.55,5.55,0,0,0,1.44.79c.61.24,1.31.51,2.11.8a10.54,10.54,0,0,1,1.91.91,6.52,6.52,0,0,1,1.5,1.25,5.11,5.11,0,0,1,1,1.65,5.91,5.91,0,0,1,.34,2.07,5.82,5.82,0,0,1-.6,2.69,5.69,5.69,0,0,1-1.62,2,7.19,7.19,0,0,1-2.33,1.17,9.28,9.28,0,0,1-2.67.39,9.42,9.42,0,0,1-3.55-.66,9,9,0,0,1-2.84-1.83,8,8,0,0,1-1.81-2.57l3.52-2.61A8.27,8.27,0,0,0,314.5,122Z"/><path class="cls-1" d="M336.9,108.14V127.2h-5V108.14Zm-1.44,0h9.4v4.28h-9.4Zm0,7.08h8.87v4.14h-8.87Zm0,7.7h9.4v4.28h-9.4Z"/></g></g></svg>